# AST/ASF file generated using VICON BodyLanguage
# -----------------------------------------------
:version 1.10
:name VICON
:units
  mass 1.0
  length 0.45
  angle deg
:documentation
   .ast/.asf automatically generated from VICON data using
   VICON BodyBuilder and BodyLanguage model FoxedUp or BRILLIANT.MOD
:root
   order TX TY TZ RX RY RZ
   axis XYZ
   position 0 0 0  
   orientation 0 0 0 
:bonedata
  begin
     id 1 
     name lhipjoint
     direction 0.54267 -0.795011 0.271047 
     length 2.39899 
     axis 0 0 0  XYZ
  end
  begin
     id 2 
     name lfemur
     direction 0.34202 -0.939693 0  
     length 7.49701  
     axis 0 0 20  XYZ
    dof rx ry rz
    limits (-160.0 20.0)
           (-70.0 70.0)
           (-60.0 70.0)
  end
  begin
     id 3 
     name ltibia
     direction 0.34202 -0.939693 0   
     length 8.1668   
     axis 0 0 20   XYZ
    dof rx
    limits (-10.0 170.0)
  end
  begin
     id 4 
     name lfoot
     direction 0.0736283 -0.202292 0.976554   
     length 2.13544   
     axis -90 7.62852e-016 20   XYZ
    dof rx rz
    limits (-45.0 90.0)
           (-70.0 20.0)
  end
  begin
     id 5 
     name ltoes
     direction 1.53557e-011 -4.22024e-011 1   
     length 1.07411   
     axis -90 7.62852e-016 20   XYZ
    dof rx
    limits (-90.0 20.0)
  end
  begin
     id 6 
     name rhipjoint
     direction -0.538061 -0.797813 0.272002   
     length 2.39057  
     axis 0 0 0  XYZ 
  end
  begin
     id 7 
     name rfemur
     direction -0.34202 -0.939693 0   
     length 7.50152   
     axis 0 0 -20   XYZ
    dof rx ry rz
    limits (-160.0 20.0)
           (-70.0 70.0)
           (-70.0 60.0)
  end
  begin
     id 8 
     name rtibia
     direction -0.34202 -0.939693 0   
     length 8.05793   
     axis 0 0 -20   XYZ
    dof rx
    limits (-10.0 170.0)
 end
 begin
     id 9 
     name rfoot
     direction -0.0765195 -0.210236 0.974652   
     length 2.28698  
     axis -90 -7.62852e-016 -20   XYZ
    dof rx rz
    limits (-45.0 90.0)
           (-20.0 70.0)
  end
  begin
     id 10 
     name rtoes
     direction -1.53542e-011 -4.21847e-011 1   
     length 1.14762   
     axis -90 -7.62852e-016 -20   XYZ
    dof rx
    limits (-90.0 20.0)
  end
  begin
     id 11 
     name lowerback
     direction -0.0217239 0.996592 -0.0795765   
     length 2.08176   
     axis 0 0 0   XYZ
    dof rx ry rz
    limits (-20.0 45.0)
           (-30.0 30.0)
           (-30.0 30.0)
  end
  begin
     id 12 
     name upperback
     direction -0.00563773 0.999651 -0.0258155   
     length 2.08898   
     axis 0 0 0   XYZ
    dof rx ry rz
    limits (-20.0 45.0)
           (-30.0 30.0)
           (-30.0 30.0)
  end
  begin
     id 13 
     name thorax
     direction 0.0032706 0.999923 0.0119599   
     length 2.0968   
     axis 0 0 0   XYZ
    dof rx ry rz
    limits (-20.0 45.0)
           (-30.0 30.0)
           (-30.0 30.0)
  end
  begin
     id 14 
     name lowerneck
     direction -0.0285886 0.99568 0.0883427   
     length 1.81272   
     axis 0 0 0   XYZ
    dof rx ry rz
    limits (-20.0 45.0)
           (-30.0 30.0)
           (-30.0 30.0)
  end
  begin
     id 15 
     name upperneck
     direction 0.0807535 0.97985 -0.18268   
     length 1.82518   
     axis 0 0 0   XYZ
    dof rx ry rz
    limits (-20.0 45.0)
           (-30.0 30.0)
           (-30.0 30.0)
  end
  begin
     id 16
     name head
     direction 0.0236605 0.997053 -0.0729767  
     length 1.84443  
     axis 0 0 0   XYZ
    dof rx ry rz
    limits (-20.0 45.0)
           (-30.0 30.0)
           (-30.0 30.0)
  end
  begin
     id 17 
     name lclavicle
     direction 0.918986 0.39378 -0.0200683  
     length 3.27822  
     axis 0 0 0   XYZ
    dof ry rz
    limits (-20.0 10.0)
           (0.0 20.0)
  end
  begin
     id 18 
     name lhumerus
     direction 1 -4.4897e-011 2.09544e-027   
     length 5.5568   
     axis 180 -30 -90   XYZ
    dof rx ry rz
    limits (-60.0 90.0)
           (-90.0 90.0)
           (-90.0 90.0)
  end
  begin
     id 19
     name lradius
     direction 1 -4.48957e-011 -1.27696e-026   
     length 3.63979   
     axis 180 -30 -90   XYZ
    dof rx
    limits (-10.0 170.0)
  end
  begin
     id 20
     name lwrist
     direction 1 -4.49001e-011 -1.49001e-026   
     length 1.8199   
     axis 9.0955e-015 90 90   XYZ
    dof ry
    limits (-180.0 0.0)
 end
  begin
     id 21 
     name lhand
     direction 1 -4.48709e-011 -2.9758e-026   
     length 0.569419   
     axis 1.90115e-014 90 90   XYZ
    dof rx rz
    limits (-90.0 90.0)
           (-45.0 45.0)
  end
  begin
     id 22 
     name lfingers
     direction 1 -4.49175e-011 -5.96505e-026   
     length 0.45908   
     axis 3.80223e-014 90 90   XYZ
    dof rx
    limits (0.0 90.0)
  end
  begin
     id 23
     name lthumb
     direction 0.707107 -6.34864e-011 0.707107   
     length 0.65915   
     axis -90 45 -3.84942e-014   XYZ
    dof rx rz
    limits (-45.0 45.0)
           (-45.0 45.0)
  end
  begin
     id 24 
     name rclavicle
     direction -0.911913 0.396426 -0.106115   
     length 3.46301  
     axis 0 0 0   XYZ 
    dof ry rz
    limits (-10.0 20.0)
           (-20.0 0.0)
  end
  begin
     id 25 
     name rhumerus
     direction -1 -4.48965e-011 7.78516e-028  
     length 5.34339   
     axis 180 30 90   XYZ
    dof rx ry rz
    limits (-90.0 60.0)
           (-90.0 90.0)
           (-90.0 90.0)
  end
  begin
     id 26 
     name rradius
     direction -1 -4.48948e-011 -5.79823e-027   
     length 3.65101   
     axis 180 30 90   XYZ
    dof rx
    limits (-10.0 170.0)
  end
  begin
     id 27 
     name rwrist
     direction -1 -4.48995e-011 -1.48996e-026   
     length 1.8255   
     axis 9.0955e-015 -90 -90   XYZ
    dof ry
    limits (-180.0 0.0)
  end
  begin
     id 28
     name rhand
     direction -1 -4.48957e-011 -2.97937e-026   
     length 0.694249   
     axis 1.90115e-014 -90 -90   XYZ
    dof rx rz
    limits (-90.0 90.0)
           (-45.0 45.0)
  end
  begin
     id 29
     name rfingers
     direction -1 -4.4898e-011 -5.95943e-026   
     length 0.559721   
     axis 3.80223e-014 -90 -90   XYZ
    dof rx
    limits (0.0 90.0)
  end
  begin
     id 30
     name rthumb
     direction -0.707107 -6.34969e-011 0.707107   
     length 0.803651   
     axis -90 -45 3.84942e-014   XYZ
    dof rx rz
    limits (-45.0 45.0)
           (-45.0 45.0)
  end
:hierarchy
  begin
    root lhipjoint rhipjoint lowerback
    lhipjoint lfemur
    lfemur ltibia
    ltibia lfoot
    lfoot ltoes
    rhipjoint rfemur
    rfemur rtibia
    rtibia rfoot
    rfoot rtoes
    lowerback upperback
    upperback thorax
    thorax lowerneck lclavicle rclavicle
    lowerneck upperneck
    upperneck head
    lclavicle lhumerus
    lhumerus lradius
    lradius lwrist
    lwrist lhand lthumb
    lhand lfingers
    rclavicle rhumerus
    rhumerus rradius
    rradius rwrist
    rwrist rhand rthumb
    rhand rfingers
  end

#!OML:ASF H:\Terrain\Walking\May29\JustinRory\rory.ASF
:FULLY-SPECIFIED
:DEGREES
627
root 17.8965 10.2655 1.37647 -374.64 -74.0829 349.155
lowerback 38.65 2.31444 -5.5405
upperback 14.3375 -0.815473 0.226029
thorax -2.91176 -1.39363 3.41895
lowerneck 6.24809 -21.1329 -17.9538
upperneck 4.45357 -32.5113 28.224
head 8.25228 -16.3183 8.13655
rclavicle 1.47101e-014 -3.57812e-014
rhumerus 39.7021 27.0537 -72.4679
rradius 57.4413
rwrist -1.90131
rhand -15.3377 29.8683
rfingers 7.12502
rthumb 10.839 0.167969
lclavicle 1.47101e-014 -3.57812e-014
lhumerus 23.4823 1.09417 67.2424
lradius 91.3819
lwrist 32.6445
lhand -24.1357 22.4569
lfingers 7.12502
lthumb 2.34631 -307.576
rfemur -64.9903 -8.11391 17.6988
rtibia 74.1904
rfoot 19.8868 -3.35891
rtoes 11.7256
lfemur -63.5889 10.1089 -4.09181
ltibia 66.0057
lfoot 27.6578 -0.892452
ltoes 15.2423
628
root 17.8787 10.2618 1.37775 -374.956 -74.1641 349.328
lowerback 39.265 2.60718 -6.06527
upperback 14.196 -0.667275 0.708451
thorax -3.25892 -1.35735 4.15264
lowerneck 6.00646 -21.1684 -18.4081
upperneck 4.56223 -32.4858 27.874
head 8.3234 -16.2718 8.0435
rclavicle -3.49861e-014 -1.27222e-014
rhumerus 39.2777 27.8729 -72.221
rradius 57.35
rwrist -2.23487
rhand -14.6934 30.0994
rfingers 7.12502
rthumb 11.4605 0.432647
lclavicle -3.49861e-014 -1.27222e-014
lhumerus 24.7486 -0.324054 66.2116
lradius 92.046
lwrist 33.3748
lhand -22.458 21.3769
lfingers 7.12502
lthumb 3.96651 -308.68
rfemur -64.9157 -8.22156 17.7453
rtibia 74.3076
rfoot 19.6593 -3.29237
rtoes 11.9792
lfemur -63.4941 10.1573 -4.06341
ltibia 66.1612
lfoot 27.6159 -0.851218
ltoes 14.8425
629
root 17.8555 10.2526 1.38032 -375.377 -74.2092 349.734
lowerback 39.7447 2.9322 -6.83887
upperback 14.0158 -0.55888 1.17743
thorax -3.5998 -1.34153 5.0146
lowerneck 5.82926 -21.2057 -18.5538
upperneck 4.65815 -32.4185 27.3689
head 8.28227 -16.2128 7.89831
rclavicle 2.90226e-014 -3.18055e-014
rhumerus 38.9195 28.8718 -72.1752
rradius 57.2178
rwrist -2.6815
rhand -14.602 30.2422
rfingers 7.12502
rthumb 11.5486 0.580349
lclavicle 2.90226e-014 -3.18055e-014
lhumerus 25.9838 -1.6553 64.8034
lradius 92.5176
lwrist 34.0119
lhand -20.5888 19.3789
lfingers 7.12502
lthumb 5.77134 -310.72
rfemur -65.0084 -8.24728 17.6784
rtibia 74.4672
rfoot 19.4525 -3.2444
rtoes 12.0786
lfemur -63.6022 10.2343 -4.12687
ltibia 66.3464
lfoot 27.7063 -1.34452
ltoes 13.208
630
root 17.8471 10.2499 1.38008 -375.452 -74.2297 349.853
lowerback 39.981 2.98595 -6.79481
upperback 13.9168 -0.493714 1.17468
thorax -3.78835 -1.29661 4.96786
lowerneck 5.98913 -21.2473 -18.6424
upperneck 4.62436 -32.5321 27.5302
head 8.3221 -16.282 7.9445
rclavicle 1.47101e-014 -7.95139e-016
rhumerus 38.191 29.2923 -73.0307
rradius 57.0542
rwrist -2.43278
rhand -15.2166 30.6082
rfingers 7.12502
rthumb 10.9558 0.914015
lclavicle 1.47101e-014 -7.95139e-016
lhumerus 27.6041 -3.51203 62.5348
lradius 93.098
lwrist 34.8829
lhand -18.6455 18.1682
lfingers 7.12502
lthumb 7.64736 -311.99
rfemur -65.0818 -8.13922 17.6284
rtibia 74.5588
rfoot 19.3854 -3.21376
rtoes 11.5563
lfemur -63.6967 10.3051 -4.14883
ltibia 66.4437
lfoot 27.7746 -1.48473
ltoes 13.5844
631
root 17.8509 10.2573 1.37912 -375.906 -74.2308 350.464
lowerback 39.4572 2.64667 -5.98168
upperback 14.2767 -0.64251 0.40951
thorax -3.23202 -1.33831 3.78228
lowerneck 5.98078 -21.2821 -18.3019
upperneck 4.46967 -32.712 28.2924
head 8.42672 -16.3838 8.09428
rclavicle 2.90226e-014 -3.4191e-014
rhumerus 37.6538 28.769 -74.7481
rradius 56.9251
rwrist -1.33164
rhand -14.9376 31.0057
rfingers 7.12502
rthumb 11.225 1.32599
lclavicle 2.90226e-014 -3.4191e-014
lhumerus 29.9952 -5.34067 59.2424
lradius 93.8039
lwrist 35.6823
lhand -16.9169 18.5445
lfingers 7.12502
lthumb 9.31553 -311.681
rfemur -65.164 -7.91348 17.4008
rtibia 74.5285
rfoot 19.4363 -3.01316
rtoes 9.90324
lfemur -63.6926 10.3108 -4.3362
ltibia 66.3951
lfoot 27.7632 -1.15448
ltoes 14.8147
632
root 17.8494 10.2678 1.38598 -376.215 -74.22 350.99
lowerback 39.2228 2.5846 -5.91356
upperback 14.3846 -0.683781 0.326409
thorax -3.03934 -1.36086 3.67096
lowerneck 5.92285 -21.2754 -18.3793
upperneck 4.31175 -32.6957 28.4982
head 8.4403 -16.3799 8.15961
rclavicle -7.55382e-015 -3.73715e-014
rhumerus 37.2823 28.9361 -75.2289
rradius 56.9763
rwrist -1.0134
rhand -14.4638 30.8246
rfingers 7.12502
rthumb 11.6819 1.17029
lclavicle -7.55382e-015 -3.73715e-014
lhumerus 31.8143 -6.58018 56.8354
lradius 94.5109
lwrist 36.2398
lhand -15.1223 19.1439
lfingers 7.12502
lthumb 11.0468 -311.167
rfemur -65.2888 -7.87601 17.2325
rtibia 74.437
rfoot 19.5161 -2.75171
rtoes 8.69608
lfemur -63.7554 10.2738 -4.51931
ltibia 66.3259
lfoot 27.5004 -0.726763
ltoes 16.2696
